<?xml version="1.0" encoding="UTF-8" standalone="no"?>
<svg width="974px" height="1343px" viewBox="0 0 974 1343" version="1.1" xmlns="http://www.w3.org/2000/svg" xmlns:xlink="http://www.w3.org/1999/xlink">
    <!-- Generator: Sketch 3.7.2 (28276) - http://www.bohemiancoding.com/sketch -->
    <title>clickmepotion</title>
    <desc>Created with Sketch.</desc>
    <defs>
        <linearGradient x1="50%" y1="47.8217489%" x2="50%" y2="100%" id="linearGradient-1">
            <stop stop-color="#72A2FA" offset="0%"></stop>
            <stop stop-color="#00116E" offset="100%"></stop>
        </linearGradient>
        <path d="M443,228.12031 L443,160.999246 C443,156.588105 439.418007,153 434.999395,153 L69.0006048,153 C64.5827088,153 61,156.581384 61,160.999246 L61,227.131203 C22.9867238,264.477008 0,315.741921 0,378.5 C0,380.63117 0.0265078133,382.756149 0.0792117178,384.874624 C0.0270030524,385.243806 0,385.621084 0,386.004663 L0,1237.99534 C0,1242.41129 0.917459918,1249.4359 2.04920408,1253.67431 C2.04920408,1253.67431 0,1319 251.700119,1319 C503.400238,1319 501.343577,1253.6915 501.343577,1253.6915 C502.810593,1249.52094 503.400252,1242.41619 503.400252,1237.99534 L503.400252,386.004663 C503.400252,385.080048 503.243055,384.191699 502.953887,383.364966 C502.984583,381.747004 503,380.125303 503,378.5 C503,316.294163 480.416041,265.380111 443,228.12031 Z" id="path-2"></path>
        <mask id="mask-3" maskContentUnits="userSpaceOnUse" maskUnits="objectBoundingBox" x="0" y="0" width="503.400252" height="1166" fill="white">
            <use xlink:href="#path-2"></use>
        </mask>
        <linearGradient x1="50%" y1="0%" x2="50%" y2="100%" id="linearGradient-4">
            <stop stop-color="#72A2F9" stop-opacity="0.5" offset="0%"></stop>
            <stop stop-color="#4990E2" stop-opacity="0.5" offset="100%"></stop>
        </linearGradient>
        <rect id="path-5" x="0" y="39" width="503.400252" height="120.643927" rx="8"></rect>
        <mask id="mask-6" maskContentUnits="userSpaceOnUse" maskUnits="objectBoundingBox" x="0" y="0" width="503.400252" height="120.643927" fill="white">
            <use xlink:href="#path-5"></use>
        </mask>
    </defs>
    <g id="Page-1" stroke="none" stroke-width="1" fill="none" fill-rule="evenodd">
        <g id="FInal" transform="translate(0.000000, 11.000000)">
            <g id="Bottle-with-depth-Copy">
                <g id="Water-Copy-2" transform="translate(5.000000, 222.000000)">
                    <path d="M0,602.896196 C0,602.896196 29,364.396184 225.5,686.896196 C422,1009.39621 489,599.396194 489,599.396194 L489,1028.39621 C489,1028.39621 502,1055.89618 412,1077.89618 C322,1099.89618 55.1586645,1110.50277 1,1038.39618 L1,599.396194" id="Path-30-Copy" fill="#155AAA"></path>
                    <path d="M0,602.896196 C0,602.896196 29,364.396184 225.5,686.896196 C422,1009.39621 489,599.396194 489,599.396194 L489,1028.39621 C489,1028.39621 502,1055.89618 412,1077.89618 C322,1099.89618 55.1586645,1110.50277 1,1038.39618 L1,599.396194" id="Path-30-Copy-2" fill="#4990E2" transform="translate(244.826546, 806.151632) scale(-1, 1) translate(-244.826546, -806.151632) "></path>
                    <path d="M272.014463,521.251467 C218.514463,367.751467 121.514462,404.751466 121.514462,404.751466 C121.514462,404.751466 64.5144629,425.751465 82.5144629,361.251467 C100.514463,296.751468 279.014462,365.251472 314.014463,515.251467 C349.014464,665.251463 181.514464,792.251463 181.514464,792.251463 C181.514464,792.251463 325.514463,674.751467 272.014463,521.251467 Z" id="Path-32-Copy-3" fill="#4990E2"></path>
                    <path d="M285.92921,475.230742 C222.910295,294.419462 108.651701,338.002636 108.651701,338.002636 C108.651701,338.002636 40.6974079,365.897527 62.7126795,286.762958 C84.7279511,207.628389 318.048494,196.491954 365.902467,438.002296 C413.756441,679.512638 179.327121,794.448045 179.327121,794.448045 C179.327121,794.448045 348.948125,656.042022 285.92921,475.230742 Z" id="Path-32-Copy-4" fill="#155AAA" transform="translate(215.334054, 515.291510) rotate(-8.000000) translate(-215.334054, -515.291510) "></path>
                    <path d="M285.92921,475.230742 C222.910295,294.419462 108.651701,338.002636 108.651701,338.002636 C108.651701,338.002636 40.6974079,365.897527 62.7126795,286.762958 C84.7279511,207.628389 318.048494,196.491954 365.902467,438.002296 C413.756441,679.512638 179.327121,794.448045 179.327121,794.448045 C179.327121,794.448045 348.948125,656.042022 285.92921,475.230742 Z" id="Path-32-Copy-5" fill="#155AAA" transform="translate(215.334054, 515.291510) rotate(-8.000000) translate(-215.334054, -515.291510) "></path>
                    <path d="M329.221407,412.077011 C262.422037,220.419006 141.30916,266.6167 141.30916,266.6167 C141.30916,266.6167 69.2783427,296.184983 92.6142931,212.303194 C115.950243,128.421405 363.267501,116.616904 413.992196,372.61526 C464.716892,628.613617 292.988373,704.274575 274.652354,712.810197 C256.316335,721.345819 396.020777,603.735016 329.221407,412.077011 Z" id="Path-32-Copy-6" fill="#4990E2" transform="translate(255.643014, 435.941741) rotate(-8.000000) translate(-255.643014, -435.941741) "></path>
                    <path d="M375.574972,361.287706 C307.107346,164.843208 171.828284,191.102825 171.828284,191.102825 C171.828284,191.102825 97.9985602,221.40955 121.917306,135.432886 C145.836051,49.4562222 407.500586,58.9254639 448.402487,328.10037 C483.289297,557.690038 327.324972,721.801847 308.531027,730.550638 C289.737082,739.29943 444.042599,557.732203 375.574972,361.287706 Z" id="Path-32-Copy-7" fill="#155AAA" transform="translate(285.309586, 409.063168) rotate(-8.000000) translate(-285.309586, -409.063168) "></path>
                    <path d="M411.196956,298.29215 C342.72933,101.847652 207.450268,128.107269 207.450268,128.107269 C207.450268,128.107269 133.620544,158.413994 157.53929,72.4373303 C181.458035,-13.5393337 433.167217,-19.7988259 474.069118,249.37608 C508.955928,478.965748 432.723949,787.862491 372.015194,677.337833 C358.240148,652.259371 479.664582,494.736647 411.196956,298.29215 Z" id="Path-32-Copy-8" fill="#4990E2" transform="translate(317.812324, 360.069442) rotate(-8.000000) translate(-317.812324, -360.069442) "></path>
                </g>
                <g id="Jar-Copy-2">
                    <use id="Combined-Shape-Copy-2" stroke="#4990E2" mask="url(#mask-3)" stroke-width="20" fill-opacity="0.5" fill="url(#linearGradient-1)" xlink:href="#path-2"></use>
                    <use id="Rectangle-2-Copy-6" stroke="#4990E2" mask="url(#mask-6)" stroke-width="20" fill="url(#linearGradient-4)" xlink:href="#path-5"></use>
                    <rect id="Rectangle-2-Copy-7" fill-opacity="0.3" fill="#4990E2" x="70" y="156.166387" width="363.382429" height="37.0677453" rx="8"></rect>
                    <path d="M64.624682,193 C64.624682,193 36.1246754,218.5 120.624682,218.5 C205.124689,218.5 462.124669,225 451.624682,209" id="Path-7-Copy-2" stroke="#4990E2" stroke-width="10"></path>
                    <path d="M64.9730643,179.831041 C64.9730643,179.831041 36.4730577,205.331041 120.973064,205.331041 C205.473071,205.331041 462.473051,211.831041 451.973064,195.831041" id="Path-7-Copy-3" stroke="#4990E2" stroke-width="10" transform="translate(256.316984, 193.234132) rotate(2.000000) translate(-256.316984, -193.234132) "></path>
                    <path d="M332.372062,194.001422 L280,242.930299 C280,242.930299 378.312468,1080.52632 535.428656,1283.70555 L602.501648,1326 C602.501648,1326 857.011496,1309.41394 958.080388,1262.14367 L973.700126,1206.58037 C973.700126,1206.58037 765.590088,977.692746 696.220076,203.953058 L621.796618,160 L332.372062,194.001422 Z M505.021598,317.223329 C529.886339,317.223329 550.043195,296.802291 550.043195,271.611664 C550.043195,246.421038 529.886339,226 505.021598,226 C480.156856,226 460,246.421038 460,271.611664 C460,296.802291 480.156856,317.223329 505.021598,317.223329 Z" id="Combined-Shape" stroke="#FFFFFF" stroke-width="10" fill="#BE75FF"></path>
                    <path d="M494,227.715362 C494,227.715362 718,143.715363 698,29.2153616 C678,-85.2846394 504,173.715362 504,173.715362" id="Path-9-Copy" stroke="#155AAA" stroke-width="10"></path>
                    <path d="M479,234.667226 C479,234.667226 536,155.667227 501.5,173.667226" id="Path-10-Copy-3" stroke="#155AAA" stroke-width="10"></path>
                    <path d="M468.85199,231.738194 C468.85199,231.738194 542.498093,148.867558 488.491459,173.953082" id="Path-10-Copy-4" stroke="#155AAA" stroke-width="10" transform="translate(488.566989, 200.480762) rotate(-16.000000) translate(-488.566989, -200.480762) "></path>
                    <path d="M461.604332,229.428337 C461.604332,229.428337 525.501336,148.27673 471.494702,173.362254" id="Path-10-Copy-5" stroke="#155AAA" stroke-width="10" transform="translate(477.390643, 198.989055) rotate(-35.000000) translate(-477.390643, -198.989055) "></path>
                    <path d="M478.167337,176.817679 C478.167337,176.817679 279.041606,-1.78679253 181.167338,75.3176784 C83.2930696,152.422149 349.152912,182.415209 482.167337,230.817679" id="Path-12-Copy" stroke="#155AAA" stroke-width="10"></path>
                    <path d="M480,230 C480,230 485,256.5 500,227" id="Path-13-Copy" stroke="#155AAA" stroke-width="10"></path>
                    <path d="M493,228 C493,228 501,257.5 516,228" id="Path-13-Copy-2" stroke="#155AAA" stroke-width="10"></path>
                    <path d="M516,220.340175 C516,220.340175 449,116.340171 409.5,281.340175 C370,446.340179 263,560.840171 215,560.840175" id="Path-16-Copy" stroke="#155AAA" stroke-width="10"></path>
                    <path d="M471,246.476937 C471,246.476937 487,100.976929 687.5,289.976937 C888,478.976946 825,236.976937 825,236.976937" id="Path-17-Copy" stroke="#155AAA" stroke-width="10"></path>
                </g>
                <path d="M161.843137,364.943909 C67.5237992,427.399959 46.3500362,692.079244 46.3500362,692.079244 C46.3500362,692.079244 16.631488,358.836348 103.180429,278.134425 C189.72937,197.432502 256.162475,302.487858 161.843137,364.943909 Z" id="Path-241-Copy-2" fill="#FFFFFF" opacity="0.9" transform="translate(124.630948, 470.461462) rotate(-3.000000) translate(-124.630948, -470.461462) "></path>
                <path d="M236.591767,1288.52417 C236.591767,1288.52417 47.5917673,1293.52416 47.5917673,1184.02416 C47.5917673,1134.08399 49.0210008,1087.7226 78.8601598,1087.7226 C108.699319,1087.7226 142.091767,1123.91558 108.699319,1184.02416 C65.6063772,1261.59426 236.591767,1288.52417 236.591767,1288.52417 Z" id="Path-47-Copy-2" fill-opacity="0.97" fill="#FFFFFF" opacity="0.9" transform="translate(142.091767, 1188.140889) rotate(-8.000000) translate(-142.091767, -1188.140889) "></path>
                <circle id="Oval-14" fill-opacity="0.9" fill="#FFFFFF" cx="60" cy="727" r="22"></circle>
                <circle id="Oval-14-Copy-3" fill-opacity="0.9" fill="#FFFFFF" opacity="0.6" cx="59.5" cy="775.5" r="16.5"></circle>
                <circle id="Oval-14-Copy-4" fill="#FFFFFF" opacity="0.4" cx="59.4348733" cy="810.434873" r="8.43487326"></circle>
                <circle id="Oval-14-Copy" fill-opacity="0.8" fill="#FFFFFF" cx="271.5" cy="1273.5" r="13.5"></circle>
                <circle id="Oval-14-Copy-2" fill-opacity="0.5" fill="#FFFFFF" cx="301.5" cy="1273.5" r="7.5"></circle>
                <path d="M42.3797157,106.718582 C68.1389797,71.0887553 32.4244926,34.136089 21.4076689,92.4758463 C10.3908452,150.815604 56.5317551,140.808269 56.5317551,140.808269 C56.5317551,140.808269 16.6204517,142.348408 42.3797157,106.718582 Z" id="Path-112" fill-opacity="0.9" fill="#FFFFFF" transform="translate(38.119829, 101.704370) rotate(-7.000000) translate(-38.119829, -101.704370) "></path>
            </g>
            <path d="M649.082747,1147.68268 C652.144228,1148.67934 655.312623,1149.36224 658.587249,1149.73242 C660.487422,1149.92042 663.695161,1148.9835 668.207001,1146.92628 C670.289256,1145.95715 671.470326,1144.05699 671.750479,1141.22544 C672.241902,1139.87588 672.034065,1138.48463 671.127941,1137.05037 C670.22269,1135.61497 669.240952,1134.06697 668.18293,1132.40603 C667.565956,1130.87304 666.406493,1129.99757 664.704409,1129.77975 C663.002803,1129.5613 661.485891,1129.07572 660.153854,1128.3227 C659.229184,1127.61851 656.742789,1127.03639 652.696134,1126.57432 C648.652015,1126.10892 646.09527,1125.82062 645.024044,1125.71173 C643.769487,1126.12306 640.635164,1127.6584 635.616236,1130.32399 C632.877384,1132.24294 630.529578,1134.52054 628.572566,1137.15711 C626.612558,1139.79759 624.876156,1142.01911 623.364397,1143.82032 C620.60749,1147.80156 619.338795,1152.30874 619.563515,1157.33516 C620.158276,1159.91653 621.871464,1162.60374 624.70663,1165.3923 C627.547439,1168.17349 630.699668,1171.14313 634.165099,1174.29911 C637.490424,1177.40341 640.99613,1179.77006 644.680508,1181.40148 C648.36989,1183.02637 652.669574,1184.50419 657.580696,1185.83369 C662.498169,1187.15488 671.686086,1187.60614 685.15027,1187.18022 C698.628203,1186.73634 707.97526,1186.19506 713.181834,1185.56927 C718.75881,1185.17523 727.44372,1182.80995 739.220996,1178.49404 C750.978807,1174.20356 759.885632,1170.67916 765.950674,1167.90906 C772.310186,1165.22369 779.580329,1161.31148 787.750424,1156.18657 C795.898589,1151.0903 801.857342,1146.82898 805.637494,1143.38861 C809.674911,1139.95845 813.169563,1134.42433 816.114948,1126.79471 C819.043362,1119.18726 820.714464,1113.2805 821.139458,1109.05971 C821.894952,1105.25738 821.395655,1102.15813 819.645627,1099.75653 C817.898402,1097.35126 816.024919,1094.06951 814.026836,1089.90893 C812.178619,1086.045 809.14053,1082.56669 804.91658,1079.46853 C800.702478,1076.35751 796.472229,1073.65716 792.224139,1071.36946 C787.983805,1069.07162 782.78829,1068.19921 776.631999,1068.75932 C770.476212,1069.31876 764.868348,1069.75416 759.808497,1070.06519 C752.336192,1070.93801 746.995172,1073.0684 743.780293,1076.46293 C740.55851,1079.86648 737.911158,1080.06385 735.846487,1077.04416 C734.978447,1075.61595 735.539626,1074.41572 737.528655,1073.44526 C739.51666,1072.47613 742.081262,1070.79629 745.219944,1068.40907 C750.335065,1065.06783 755.282815,1062.67404 760.068464,1061.22093 C762.515732,1060.47905 765.155394,1059.39261 767.986456,1057.96295 C770.815274,1056.53624 773.449773,1055.45653 775.891105,1054.72241 C784.213223,1051.96278 790.311345,1053.73068 794.205947,1059.99964 C796.328365,1062.9439 801.133427,1065.76769 808.631408,1068.45789 C816.147106,1071.12494 823.844196,1076.23208 831.741544,1083.75512 C834.592207,1086.67534 836.384948,1089.59518 837.116177,1092.51949 C837.848428,1095.44247 838.622392,1097.72529 839.43794,1099.36821 C840.254302,1101.01006 840.5734,1104.85815 840.392526,1110.91613 C840.208844,1116.97778 839.574435,1122.21534 838.488249,1126.63031 C837.474394,1130.93928 834.539349,1136.79075 829.667426,1144.20526 C824.770854,1151.65197 822.313362,1155.38734 822.313362,1155.38734 C822.313362,1155.38734 817.997855,1159.92692 809.330518,1169.0535 C800.614921,1178.24311 795.082271,1183.96259 792.76638,1186.16771 C788.916749,1189.69884 780.462881,1193.48949 767.397618,1197.54878 C754.315395,1201.63023 739.552798,1205.58019 723.112937,1209.39413 C705.13729,1213.76359 693.774213,1215.64049 689.03902,1215.00445 C684.307996,1214.36296 679.120658,1213.90208 673.476874,1213.62175 C667.837289,1213.33594 661.766926,1211.34336 655.276739,1207.62939 C648.805603,1203.89053 645.398502,1201.56822 645.041199,1200.68083 C644.619194,1199.63176 641.643744,1197.35732 636.125726,1193.84313 C630.622616,1190.30946 624.745712,1186.52077 618.498135,1182.47262 C612.269863,1178.39926 606.762863,1174.33903 601.973067,1170.2969 C597.197377,1166.23636 595.112724,1163.06973 595.707868,1160.81154 C596.394268,1158.80344 598.59398,1155.63065 602.301016,1151.30099 C605.999165,1146.98293 609.032909,1143.68641 611.406791,1141.40554 C626.842458,1126.37081 636.823728,1118.6016 641.447024,1117.97211 C646.070147,1117.34284 654.100921,1118.70431 665.56593,1122.02214 C667.515692,1122.39156 669.920595,1123.73017 672.783768,1126.03402 C675.651789,1128.33153 677.438722,1129.86366 678.141268,1130.63483 C679.498931,1132.37373 680.526202,1135.35761 681.223127,1139.58653 C681.783145,1140.94773 681.017454,1142.56699 678.924017,1144.44698 C678.548126,1145.11867 677.463753,1146.36846 675.669583,1148.19805 C673.873544,1150.03009 672.227918,1151.19738 670.733844,1151.69841 C666.856068,1153.7315 663.183207,1154.82965 659.718497,1154.98852 C658.387603,1155.25337 655.842829,1154.68884 652.087562,1153.29039 C648.336843,1151.886 646.206921,1150.53158 645.694641,1149.23113 C644.895068,1147.19804 646.024004,1146.68245 649.082747,1147.68268 Z M636.899911,1081.61124 C634.859645,1080.86763 633.576478,1079.7931 633.049783,1078.38837 L632.910446,1078.01643 C631.333667,1073.79794 630.809362,1068.94841 631.332717,1063.47395 C631.854058,1058.00213 631.12772,1052.93562 629.159792,1048.26629 L626.28101,1041.92274 C626.00727,1041.1724 626.092438,1040.73037 626.536396,1040.59679 C626.980326,1040.46324 627.339253,1040.77151 627.613308,1041.52143 C628.863508,1044.9355 630.910039,1046.30364 633.750274,1045.62941 C635.620478,1045.34112 638.190923,1045.0259 641.461737,1044.68369 C644.732483,1044.34157 647.120537,1044.03568 648.625929,1043.76607 C651.5877,1043.42548 654.383657,1042.97443 657.013562,1042.41332 C659.642922,1041.85292 662.343226,1041.15752 665.114175,1040.32759 C667.219392,1039.69776 670.08739,1039.04589 673.718101,1038.37214 C677.348003,1037.69946 680.04775,1037.09999 681.817706,1036.57334 C684.742739,1036.15764 687.756405,1035.42131 690.857799,1034.36563 C693.957579,1033.31206 696.555649,1032.47611 698.652841,1031.85676 L737.882829,1023.72542 C740.620466,1023.19672 742.268093,1021.62872 742.825262,1019.02203 C743.381231,1016.41691 743.882813,1014.33961 744.330511,1012.78945 C744.735473,1011.42973 744.871283,1009.43681 744.738273,1006.81019 C744.605272,1004.18357 744.170215,1001.99761 743.433695,1000.25146 L742.480783,997.987837 C741.47919,995.603131 740.310748,993.974891 738.974942,993.103693 C737.673231,992.31106 736.318587,992.044367 734.91027,992.30452 C733.501803,992.564869 732.547171,991.650771 732.046909,989.561463 C732.108446,988.831024 733.847934,988.792269 737.267063,989.443057 C740.688328,990.091054 742.399736,990.414 742.399736,990.414 C744.02809,991.114711 745.197789,992.16433 745.908668,993.563151 C746.620195,994.961125 747.407611,996.248418 748.270973,997.425025 C749.924516,999.885348 752.234782,1002.15726 755.20324,1004.23899 C756.617707,1005.25364 758.207664,1007.80847 759.97577,1011.90014 C759.475341,1013.01527 759.732786,1015.52645 760.750095,1019.43118 C761.769627,1023.33301 762.217307,1026.27275 762.091239,1028.25297 C762.240881,1029.44616 762.47269,1030.96861 762.786825,1032.82016 C763.101235,1034.67135 763.230557,1035.95837 763.174554,1036.68158 C762.888603,1039.15141 763.398811,1041.87197 764.707547,1044.84028 C764.914412,1045.30867 764.796603,1045.60869 764.354053,1045.74044 C763.911475,1045.87221 763.386427,1045.67512 762.779085,1045.14889 C762.137581,1044.54419 761.653638,1043.8703 761.327148,1043.12732 C761.000809,1042.38413 760.206905,1041.71307 758.945754,1041.11366 L756.992123,1040.49734 L753.738433,1039.46707 C750.993157,1038.59405 747.026471,1038.92384 741.833887,1040.46217 C740.949673,1040.7245 740.456932,1040.73716 740.35574,1040.50004 C740.35574,1040.50004 740.175429,1040.44222 739.814828,1040.32654 C739.454263,1040.21081 739.05769,1040.08345 738.625109,1039.94446 C737.207558,1039.83009 735.391229,1040.16826 733.175226,1040.96008 C730.958339,1041.75305 728.880967,1042.2148 726.943767,1042.34441 C724.630566,1042.76503 722.234068,1043.21081 719.754142,1043.68183 C717.273829,1044.15336 714.898617,1044.50403 712.628714,1044.73347 C708.376211,1045.28644 704.004329,1045.85307 699.512913,1046.4334 C695.021071,1047.01428 689.88932,1048.17322 684.114411,1049.91428 C680.447204,1051.02227 675.384129,1052.62331 668.921706,1054.72179 C662.453015,1056.82845 657.669793,1058.7237 654.574495,1060.4042 C652.530318,1061.58132 650.239009,1062.60615 647.700715,1063.47845 C645.161399,1064.35208 642.875866,1065.24051 640.844123,1066.14366 C638.233025,1067.50339 636.817297,1068.72528 636.598178,1069.8077 C635.680079,1072.0299 635.390965,1073.59606 635.731956,1074.50475 L636.15072,1075.6196 C636.461116,1076.44515 637.217293,1077.45399 638.419914,1078.64529 C640.971851,1081.07097 642.343281,1082.52836 642.530966,1083.02181 L642.906517,1084.00845 C642.006348,1084.29161 641.478059,1084.22761 641.321745,1083.81629 C640.415579,1083.08793 638.941452,1082.35318 636.899911,1081.61124 Z M695.91471,978.192513 C692.934505,979.016826 689.9935,979.560162 687.092473,979.821403 C685.262273,980.057443 682.58061,980.734257 679.045916,981.853807 C675.509104,982.976123 672.59891,983.857145 670.31628,984.495552 C667.597895,985.256825 664.886149,986.199873 662.180462,987.325378 C659.473058,988.453126 656.811305,989.386663 654.195684,990.125284 C653.214577,990.402593 651.929256,990.83487 650.339408,991.42249 C648.749054,992.010771 647.353544,992.4754 646.153064,992.816095 C645.043907,993.406803 643.647417,993.872712 641.963657,994.213701 C640.279652,994.555009 638.727439,994.9281 637.306939,995.333026 C634.755815,996.614421 631.980326,997.615716 628.98105,998.33608 C625.980787,999.057734 623.111537,999.812207 620.373166,1000.59959 C618.380706,1001.45143 617.301605,1002.15676 617.136479,1002.71476 C616.971292,1003.27284 616.434262,1004.14727 615.524909,1005.33869 C614.692729,1007.43714 614.752455,1009.83442 615.706226,1012.52779 C616.034483,1013.45311 616.582687,1014.56911 617.351217,1015.87535 C618.120435,1017.18069 617.623721,1018.09191 615.86022,1018.61012 C614.978308,1018.86944 614.08839,1018.24875 613.191212,1016.74701 C612.294959,1015.24407 611.573569,1014.06094 611.026573,1013.19817 C609.895298,1011.01741 608.472033,1007.47746 606.75972,1002.57431 C605.964541,1000.28929 605.64809,997.469507 605.809167,994.116445 C605.969885,990.763853 605.522583,987.561052 604.469152,984.505459 L600.658444,974.94762 C600.426285,974.266069 600.170595,973.077705 599.891525,971.382282 C599.612775,969.686441 599.799051,968.747904 600.450074,968.567014 C601.31801,968.325951 602.12173,969.291938 602.86216,971.463827 L604.368156,975.867066 C605.015165,976.710776 605.835041,977.622007 606.828038,978.600484 C607.821725,979.578061 608.43604,980.405782 608.670565,981.08424 C610.879555,982.973078 614.30082,983.262319 618.929941,981.957882 L629.456605,979.003195 C632.391481,978.182301 635.346411,977.172655 638.320901,975.974988 C641.293385,974.77994 644.459984,973.716968 647.821082,972.785659 L657.569896,970.093845 L667.305074,967.419842 C670.763201,966.473373 673.833396,965.452641 676.515754,964.357608 C679.196394,963.264819 681.998747,962.18614 684.922838,961.121613 C686.646823,960.655014 688.142521,960.137442 689.409974,959.568887 C690.676992,959.0009 692.009924,958.528567 693.408922,958.151727 L700.990801,956.114579 L707.920084,954.260378 C714.145118,952.600838 718.170264,950.05413 719.996447,946.619126 C720.997502,944.388627 721.395603,942.206065 721.192145,940.069569 C720.988861,937.932846 721.535667,935.981128 722.831219,934.216134 C724.244701,933.047216 725.532562,935.681166 726.698743,942.112964 C727.868995,948.539446 728.474115,952.23618 728.511067,953.20727 C728.771936,953.85132 728.842534,955.638157 728.722398,958.56844 C728.601753,961.499391 728.919376,964.334917 729.676591,967.073389 C731.119669,970.604821 733.423431,974.610404 736.592782,979.083942 C738.252893,980.762529 738.813022,981.675426 738.271671,981.824644 C737.014326,981.993415 735.696952,981.288588 734.320701,979.70858 C733.279703,977.767686 732.303684,976.565139 731.391859,976.101892 C727.030732,973.369376 723.584303,972.121556 721.04565,972.367303 C716.032769,973.020843 710.445209,974.192253 704.279524,975.885851 L695.91471,978.192513 Z M589.500408,903.818678 C588.384549,901.433136 586.177528,899.393687 582.880918,897.698127 C581.99504,897.077888 579.678182,896.28008 575.932063,895.302338 C572.188723,894.320967 570.208821,893.479308 569.990294,892.779952 C569.689994,891.818108 569.963612,891.229982 570.810921,891.01586 C573.458069,890.347639 576.481619,890.244664 579.883418,890.704639 C583.286507,891.16293 586.33892,891.145352 589.039216,890.653906 C595.056528,890.173473 599.653213,889.022909 602.827532,887.204636 C603.144169,887.125783 603.900347,886.821024 605.095794,886.290734 C606.290834,885.760975 606.888193,885.496299 606.888193,885.496299 C608.048131,885.20856 608.741604,885.408813 608.968866,886.09676 C609.281528,887.042458 608.961189,888.145493 608.007083,889.40689 C607.052168,890.669343 606.370949,891.724382 605.963837,892.571473 C604.261083,895.049055 603.904969,897.795143 604.899146,900.805035 C605.610534,902.953308 607.138593,904.868753 609.484694,906.549695 C611.833616,908.226953 613.368705,910.133215 614.088681,912.270271 C615.805729,914.613086 617.526026,916.441916 619.248737,917.757975 C622.504177,919.138012 626.310033,920.163613 630.665816,920.835597 C635.024155,921.504242 638.888919,921.999014 642.259125,922.321367 C644.232301,922.637169 647.258474,922.312467 651.33567,921.349948 C655.410658,920.390312 658.776942,919.569515 661.435491,918.886402 C664.305542,918.150182 667.41685,917.125776 670.768365,915.814648 C672.46651,915.3818 674.065198,914.838401 675.56433,914.184625 C677.062837,913.531667 678.364091,912.974733 679.468358,912.513513 C681.79926,911.923634 683.170727,911.327898 683.583279,910.725661 C683.995655,910.123654 684.818948,909.305241 686.052659,908.271082 C688.790786,906.318526 690.348214,904.619272 690.727394,903.170128 C691.106145,901.721545 691.614587,899.699721 692.252076,897.105454 C693.105379,895.09099 693.595424,893.031646 693.722976,890.926383 C693.850237,888.821499 694.307385,886.682029 695.093667,884.508907 C695.462707,883.969266 695.9278,883.001271 696.488622,881.605335 C697.048847,880.210179 697.204715,879.182504 696.95676,878.521586 C695.53311,874.718577 692.592014,871.856846 688.135474,869.933575 C687.056057,869.466078 685.319941,868.520501 682.92865,867.094756 C680.539832,865.665781 679.179564,864.490935 678.846103,863.572407 C678.603713,862.904219 679.055075,862.435937 680.199967,862.167851 C681.136546,861.948707 682.590285,862.219674 684.562161,862.979543 C686.535147,863.737963 687.671994,864.21698 687.971936,864.417653 C689.453856,865.063437 691.754817,866.23781 694.877266,867.937701 C697.316378,869.614491 699.482933,871.082667 701.376079,872.343474 C703.270954,873.602021 704.811495,875.795411 705.998275,878.923022 C706.68647,880.732293 706.962205,882.505109 706.82469,884.242568 C706.686924,885.980353 706.759053,887.218984 707.04137,887.958118 C707.889136,890.174453 709.021606,892.454556 710.439592,894.797476 C711.859847,897.137433 712.808501,899.367171 713.284332,901.488392 C714.299117,904.102065 713.479506,907.349564 710.818514,911.240081 C710.0673,912.594238 709.05617,913.880091 707.784844,915.098002 C706.512433,916.317332 705.344949,917.511189 704.282516,918.679404 C703.557637,920.122262 702.847775,921.607047 702.152896,923.133818 C701.45723,924.661618 700.38457,925.972051 698.934673,927.065435 C695.010339,929.340042 690.541394,931.129646 685.5293,932.432215 L672.87598,935.7379 C667.636871,937.113838 663.357431,937.602009 660.041543,937.197186 C658.621234,936.840225 656.929855,936.622853 654.967223,936.545238 C653.004828,936.467312 651.138799,936.249153 649.369306,935.890459 C646.410011,935.477691 643.056049,934.938026 639.308101,934.270425 C635.562332,933.599976 632.187756,932.644875 629.184752,931.404463 C623.595778,929.082947 617.15173,927.11471 609.852278,925.499869 C609.552063,925.299553 608.148223,924.411441 605.642832,922.832746 C603.981147,921.683173 601.252894,920.110947 597.461114,918.111943 C594.490803,916.828828 592.861017,914.679845 592.570054,911.66709 C591.641327,908.817907 590.618118,906.201801 589.500408,903.818678 Z M547.392673,805.126636 C545.373567,801.147226 543.955191,798.86445 543.133473,798.283506 C541.953324,797.208987 539.947143,795.623651 537.117264,793.524324 C534.291451,791.419685 532.678866,789.643447 532.276733,788.199119 C531.925221,786.93487 532.467291,786.146177 533.902466,785.833663 C535.029871,785.588419 536.512119,786.127013 538.350648,787.447641 C540.190832,788.766106 541.431458,789.593319 542.071429,789.930784 C544.376019,791.525569 546.387598,793.801051 548.107036,796.756242 C550.062086,800.511574 552.12332,802.906844 554.288045,803.945722 C556.89462,805.738512 559.541264,807.092312 562.226898,808.008676 C564.322225,809.149722 570.081705,811.688932 579.523344,815.603089 C588.9904,819.484044 594.497093,821.380183 596.024471,821.316532 C595.860129,820.792598 596.007989,819.590735 596.467561,817.711553 C596.926537,815.83315 597.046344,814.544833 596.827513,813.845874 C597.350086,812.701827 597.652842,811.56021 597.736052,810.420643 C597.819198,809.28116 598.121409,808.140254 598.642429,806.998238 C602.177547,801.839214 604.347599,797.780127 605.161023,794.809913 C606.157066,792.082042 607.009749,789.945303 607.719959,788.398506 C608.429381,786.852737 610.73782,785.390159 614.642909,784.013908 C617.185317,783.482499 619.904283,782.406017 622.798063,780.786816 C625.688355,779.172171 627.983544,777.822103 629.685275,776.734514 C634.720444,773.955549 639.700441,771.383211 644.62661,769.015861 C649.543792,766.66025 654.301376,764.026415 658.898435,761.115673 C665.089924,757.907556 668.890177,754.948768 670.308789,752.226834 C672.169321,749.877901 672.551231,747.335675 671.458658,744.594688 C670.368145,741.851012 670.096809,739.565658 670.642488,737.741374 C672.479476,735.680913 674.063145,736.613076 675.398481,740.531441 C677.058077,745.380352 677.151885,750.292981 675.671259,755.280772 C675.141474,759.638449 673.156031,763.512188 669.709603,766.908987 C668.465043,768.607375 666.843962,770.155096 664.845922,771.552706 C662.845719,772.953141 660.937255,774.474201 659.120382,776.116048 C657.662257,777.870236 656.393575,779.793419 655.314466,781.885432 C654.233634,783.979697 652.887502,785.6963 651.276106,787.035193 C650.693957,787.887758 649.5864,788.552336 647.953234,789.029168 C646.319468,789.506783 644.717691,790.001308 643.147844,790.512771 C636.693504,793.706447 630.191026,797.98818 623.632506,803.368171 C622.423771,804.369706 620.555584,806.047817 618.02533,808.405896 C615.49079,810.769574 613.964164,812.520916 613.44831,813.656186 C612.762695,815.293958 612.23765,816.920122 611.873444,818.534355 C611.50882,820.149136 610.785689,821.682027 609.703516,823.133745 C608.957769,824.603861 610.092448,826.068518 613.110477,827.523983 C616.131592,828.975419 618.521575,830.010472 620.278762,830.63144 C621.359919,831.219764 622.98033,832.263567 625.141417,833.761085 C627.304785,835.255626 629.083197,835.750742 630.474633,835.249161 L647.438694,830.174104 C651.356458,829.296735 654.96211,828.811515 658.257424,828.716253 C661.552531,828.621263 664.69147,827.605035 667.671345,825.671447 C668.434416,825.321159 668.908718,824.30748 669.094207,822.630458 C669.279425,820.95379 669.663725,819.688379 670.247045,818.834285 C672.008191,815.999671 674.235865,816.379287 676.938029,819.962833 C679.621471,824.086271 683.334015,828.110016 688.07991,832.028786 C691.588906,834.947162 694.891238,837.273687 697.984455,839.011761 C701.327755,841.407973 701.299209,842.985793 697.893137,843.752686 C697.067146,843.93896 695.963577,843.828063 694.582791,843.419477 C693.202421,843.010346 692.007864,842.649005 690.998945,842.335623 C687.839979,841.333489 683.043108,841.195292 676.604078,841.926397 C672.58623,842.565196 668.588608,843.110335 664.611518,843.561277 C660.633245,844.013764 656.520303,844.726815 652.271336,845.702064 C634.415561,849.83363 617.798694,854.190067 602.422746,858.768228 L599.91368,859.367678 C596.462115,860.193995 593.230433,860.922656 590.219014,861.553061 C587.206396,862.185033 584.766623,863.477761 582.898696,865.432496 C581.553275,867.26263 581.332191,869.618894 582.238045,872.497954 C583.145732,875.37462 582.336425,877.123918 579.807997,877.748647 L578.859591,877.983245 C578.016445,878.191928 577.526357,878.078026 577.389424,877.64139 C577.143051,876.855307 577.086958,875.951527 577.220977,874.930243 C577.35491,873.909071 577.298825,873.005282 577.052887,872.218631 C575.797999,868.195184 573.58513,863.976576 570.418887,859.556576 C569.807767,858.665987 568.182005,857.122382 565.544314,854.922108 C562.910685,852.716529 561.488834,851.258588 561.275755,850.552116 C560.943035,849.447972 561.254581,848.994949 562.090434,848.795793 C564.231812,848.286099 566.002267,848.125187 567.872383,848.200548 C569.742622,848.275749 571.512839,848.115147 573.182674,847.719277 C575.165044,847.249914 577.114935,846.859475 579.032575,846.547732 C580.949831,846.23649 582.742037,845.884653 584.409214,845.492256 L591.281727,843.879579 L609.394783,839.248435 C609.933374,838.845104 610.090649,838.297368 609.866805,837.604956 C609.782891,837.345266 607.390004,836.314007 602.692561,834.505284 C598.001121,832.68872 592.720978,830.649628 586.854446,828.384719 C580.997209,826.107667 575.605331,824.044278 570.676402,822.197424 C565.753773,820.34234 562.881144,819.505809 562.053623,819.694083 C560.915605,819.953189 560.000847,820.967023 559.308867,822.736207 C559.540696,822.398832 559.065411,823.408034 557.881647,825.765609 C555.087649,828.687401 553.013346,830.307742 551.662576,830.621588 C550.831191,830.814908 550.673778,829.710713 551.189835,827.309623 C551.576519,825.604477 551.988864,823.98893 552.42687,822.462946 C552.864448,820.937523 552.731194,818.972836 552.028348,816.567206 L550.976383,812.955772 C550.613382,811.70653 549.417481,809.098598 547.392673,805.126636 Z M597.048798,583.780919 C601.370786,584.864537 605.29698,585.926407 608.827351,586.966751 C609.926927,587.384877 613.414984,589.634367 619.302866,593.700607 C625.205978,597.746954 628.568837,599.802204 629.380116,599.881346 C630.375754,600.581375 631.02544,601.855287 631.329154,603.703168 C631.633267,605.550529 630.882489,606.593487 629.076043,606.833058 C628.315252,606.934167 627.417751,606.407966 626.384208,605.253529 C625.351484,604.098023 624.35061,603.214455 623.381223,602.603237 C621.348576,601.391837 619.192498,600.42631 616.912381,599.707334 C611.404541,598.391354 605.933726,598.231127 600.492576,599.23605 C598.258316,599.722733 596.305217,600.336567 594.633277,601.077494 C592.96017,601.819944 590.968278,602.49021 588.657308,603.088612 C586.756333,604.101716 584.791322,604.89074 582.762628,605.455172 C580.73275,606.021151 578.59362,606.556739 576.34513,607.062009 C573.692703,608.287123 570.36854,610.084665 566.368617,612.459815 C562.36051,614.845655 558.897701,616.780028 555.983414,618.258644 C553.692559,619.83861 546.961084,623.956772 535.74437,630.671271 C524.465443,637.467034 518.504908,641.330439 517.908966,642.20102 C519.308793,643.323334 523.571062,643.68472 530.691334,643.291156 C537.806539,642.904209 542.616071,642.654767 545.123423,642.538447 C549.795382,642.553383 554.478114,642.520502 559.171494,642.440148 C563.863216,642.361961 568.504147,642.199033 573.094037,641.951869 C577.588036,642.099198 582.522115,641.473626 587.891481,640.081589 C594.683686,638.762449 599.463641,638.551641 602.239763,639.43835 C606.610561,641.29292 610.515271,642.654967 613.951523,643.52778 C617.389239,644.39868 622.084567,644.15318 628.030191,642.80101 C631.11491,642.342291 635.614813,641.171106 641.523124,639.296446 C647.420498,637.436073 651.166834,636.031552 652.769406,635.073483 C656.775887,632.230119 658.211233,629.0267 657.085208,625.45043 C655.962014,621.870464 656.230277,619.239127 657.886058,617.561501 C659.437027,618.082533 660.601566,618.790829 661.379749,619.686359 C661.462295,619.947836 661.349191,622.574645 661.039186,627.568492 C660.727535,632.564489 660.537993,635.431518 660.471755,636.168097 C659.933309,639.51773 659.2542,642.116303 658.434661,643.963566 C657.613848,645.812493 656.806021,648.025257 656.01082,650.602367 C655.600853,654.399679 655.648013,657.331677 656.15391,659.396344 C656.660529,661.46007 656.950893,664.353338 657.024468,668.076944 C657.083038,670.800792 657.62492,673.99451 658.652073,677.655656 C659.681824,681.313409 658.587977,683.402529 655.367174,683.927421 C654.09787,684.134855 653.5227,683.544492 653.641746,682.156187 C653.760639,680.768082 653.63914,679.510254 653.277574,678.382237 C652.542486,674.483925 650.886151,670.729028 648.311963,667.11294 C647.815017,666.184796 645.959906,665.468623 642.74679,664.964117 C641.818483,664.926258 640.548985,664.529092 638.938848,663.771836 C637.329473,663.013583 635.737271,662.389696 634.161944,661.900479 C630.543586,660.717346 627.554662,660.171122 625.192882,660.264664 C622.830599,660.358863 619.511371,660.234372 615.235481,659.890688 C612.108068,659.643537 609.01429,659.251552 605.95456,658.714064 C602.895493,658.175708 599.657097,657.805258 596.238634,657.603536 C593.163502,657.534295 589.689343,657.764073 585.81456,658.294828 C581.937383,658.828711 578.286674,658.998635 574.86398,658.802441 C571.491178,658.787277 568.167169,658.859438 564.891573,659.019294 C561.614983,659.180447 558.263732,659.165094 554.838325,658.972444 C552.195808,658.649817 548.880711,658.295869 544.892926,657.910602 C540.905351,657.52506 537.44176,657.578521 534.500757,658.072678 C531.017086,658.852391 527.174475,659.744139 522.971808,660.749258 C518.765209,661.759513 514.966688,662.268648 511.578615,662.273431 C508.624016,662.785346 505.378788,662.961385 501.843781,662.800314 C498.308523,662.639573 494.518405,662.913669 490.471381,663.625137 C487.57573,664.429354 483.02521,667.16975 476.805188,671.865344 C470.563809,676.588834 466.344852,679.852125 464.162135,681.637101 C459.797675,685.709699 456.570764,689.579598 454.486921,693.239579 C454.395322,693.751566 454.174748,695.524425 453.824908,698.558581 C453.474666,701.593263 453.104596,704.088346 452.714698,706.043888 C452.958604,708.468052 453.919143,711.93538 455.600168,716.440985 C456.084839,718.5161 457.610164,719.837977 460.176169,720.406682 C462.742963,720.974357 465.288451,721.004343 467.811329,720.498444 C472.113697,719.049586 474.359247,717.52392 474.551501,715.91689 C474.743622,714.310034 474.226345,711.616887 473.002402,707.833777 C472.721765,706.661603 472.431279,706.325489 472.029775,706.403616 C471.628245,706.481777 470.969615,705.922507 470.054455,704.725017 C469.987451,704.443239 470.254933,704.24394 470.856854,704.127188 C473.865545,703.544617 475.927767,703.832603 477.045376,704.988813 C477.045376,704.988813 477.580746,706.011975 478.652685,708.056786 C479.726202,710.099536 480.263544,711.120123 480.263544,711.120123 L480.468107,711.960815 C481.133684,713.39577 480.455476,715.583556 478.429984,718.52878 C476.40055,721.479155 474.988183,723.721757 474.195219,725.253548 C472.584312,728.226658 470.051814,729.820297 466.599316,730.032333 C463.855621,729.214848 461.975884,728.564496 460.95929,728.082249 C459.943004,727.599599 459.181967,727.409674 458.675894,727.51281 C457.318369,726.704541 453.806687,722.234684 448.164375,714.072238 C442.554277,705.867714 439.441093,700.321587 438.801705,697.463766 L437.245433,682.688115 C437.450017,681.25539 437.985642,679.909654 438.851887,678.651442 C442.998279,674.394327 446.905284,670.294034 450.574587,666.348395 C454.233996,662.415679 457.896518,658.098072 461.560883,653.397244 C463.387075,651.497024 465.189201,649.505135 466.967207,647.421655 C468.742635,645.341545 470.635445,643.342781 472.645545,641.425499 C473.911201,640.718913 475.187024,639.8394 476.472823,638.787233 C477.757621,637.736373 478.703991,636.767812 479.312431,635.880906 C480.703626,634.8642 482.006881,633.912321 483.222422,633.024995 C484.437144,632.138739 485.493447,631.230484 486.391519,630.299998 C487.484224,629.338442 488.635975,628.417091 489.846779,627.535953 C491.056764,626.655884 491.962482,625.776957 492.564295,624.898708 C494.345258,622.172828 496.506473,620.219756 499.048679,619.038552 C502.626269,617.990023 505.882894,616.776876 508.818703,615.399006 C511.751085,614.025612 514.709874,612.676359 517.695155,611.351208 C520.479057,610.446759 523.079985,609.017669 525.496967,607.065267 C527.9102,605.11776 529.84438,603.26886 531.300914,601.516751 C532.653067,600.551042 534.831987,598.722957 537.833705,596.037709 C540.828978,593.360881 541.922889,591.028362 541.121193,589.032607 C539.544981,589.059985 536.625454,588.171157 532.365829,586.361781 C528.110375,584.546958 524.424853,583.323689 521.306485,582.695422 C519.663216,582.441091 518.007425,582.236807 516.338969,582.082685 C514.670466,581.928625 512.981052,581.583613 511.271027,581.04718 C510.983947,581.087425 509.177009,580.661247 505.851095,579.76741 C502.526411,578.871965 500.720954,578.443852 500.433734,578.484281 C498.247532,578.011933 495.482602,577.278945 492.139698,576.284199 C488.798258,575.287541 485.701071,574.598026 482.847015,574.216973 C480.376431,573.781346 477.501254,573.526027 474.22066,573.451969 C470.939343,573.378857 467.616647,572.892483 464.253929,571.990929 C461.084428,571.060154 458.535191,569.666588 456.60693,567.809158 C454.680987,565.948701 452.50338,563.698607 450.075479,561.056933 C449.087326,560.100927 448.156551,559.061367 447.283169,557.938167 C446.410452,556.814097 445.318114,555.695107 444.006307,554.58092 C442.866857,553.34166 441.820758,552.313264 440.867649,551.496132 C439.915028,550.678364 438.869334,549.397484 437.731209,547.652574 C436.476988,545.320711 434.731661,542.602244 432.497162,539.494497 C430.267423,536.380533 428.665787,533.076283 427.690735,529.58357 C426.680376,525.890775 426.896832,522.236507 428.335377,518.626838 C429.770691,515.02139 432.366953,512.682894 436.123513,511.612235 C436.689773,511.542063 438.723523,512.544278 442.227865,514.614939 C443.480271,515.560517 444.525902,515.830777 445.364034,515.426714 C446.201863,515.023048 447.211699,515.597779 448.394732,517.149411 C448.327745,518.256266 447.554502,518.502513 446.075305,517.887731 L444.878253,516.987202 C444.4224,516.64392 443.899936,516.208775 443.310918,515.681654 C442.4972,515.482599 441.571026,515.447732 440.53218,515.577298 C438.926291,515.778061 437.497022,517.737876 436.242572,521.459098 C434.985292,525.184017 434.442508,527.488256 434.616427,528.368979 L435.188801,529.046693 C436.055427,531.942435 437.850839,534.586841 440.576625,536.977986 C443.306483,539.363813 445.656578,540.822237 447.624219,541.356911 C453.234398,543.893315 459.50277,544.396786 466.415246,542.885988 L470.199285,542.092923 C474.374068,541.549317 479.307113,540.370249 484.993229,538.562663 C490.668962,536.768638 495.320134,535.113351 498.950727,533.591731 C504.11143,531.599032 508.846642,530.228279 513.160825,529.473787 C517.470701,528.724922 522.463828,527.732827 528.137153,526.501657 L530.001576,525.855558 C532.339754,525.590917 534.219424,524.922004 535.640434,523.849075 C537.06011,522.777887 538.472069,521.781197 539.876475,520.858815 C542.540936,519.225643 544.214529,518.446001 544.900296,518.515958 C545.586045,518.585938 547.500199,518.213382 550.640547,517.401242 L554.125387,517.033552 C557.863223,516.356649 561.539226,515.452705 565.152679,514.322772 C568.761497,513.198894 572.215135,512.048744 575.513955,510.871947 C577.26866,510.69996 578.829972,510.241012 580.197633,509.495486 C581.564282,508.751284 582.888921,507.94172 584.171547,507.066828 C586.717688,505.980545 589.446961,505.068585 592.359597,504.330723 C593.370231,504.238008 594.054053,503.800819 594.411063,503.019172 C595.804342,500.834248 596.564626,499.456729 596.693861,498.884064 C597.781937,498.040134 598.643177,497.403951 599.278064,496.974899 C599.912683,496.546197 600.400795,495.570269 600.742299,494.047238 C601.296541,492.973406 601.256652,490.550224 600.624397,486.775308 C599.993988,482.997981 599.313268,480.249993 598.581524,478.532166 C598.933452,477.757158 599.336349,477.352181 599.790371,477.317035 C600.24435,477.281944 601.09923,477.449349 602.355176,477.819075 C603.611264,478.188613 604.312338,478.64727 604.458355,479.19514 C604.726211,480.199363 604.793145,481.405365 604.658894,482.813532 C604.524489,484.221899 604.591435,485.427886 604.860002,486.431179 C605.177662,487.616547 606.180435,489.443907 607.870322,491.91074 C608.68813,492.866092 609.108157,493.900443 609.130033,495.014326 C609.151927,496.128185 609.298558,497.184913 609.570071,498.184359 C610.66032,501.157302 612.48875,504.758666 615.059393,508.983366 C617.637734,513.198009 619.636575,515.976763 621.051142,517.326024 C622.853445,519.376779 624.425777,521.353709 625.767643,523.257581 C627.111292,525.159122 628.625701,526.903967 630.310898,528.492187 C632.727297,531.295025 635.221205,534.015785 637.792648,536.654614 C640.368644,539.287495 642.033359,541.067804 642.783791,541.999583 C643.758399,543.36562 643.319501,544.46191 641.465165,545.290993 C639.609199,546.122206 638.497957,545.915513 638.132875,544.668988 C637.559843,542.709291 637.038043,541.248175 636.567093,540.286076 C635.189642,538.495996 633.498525,537.010768 631.493455,535.830655 C629.48978,534.648722 627.726125,533.717886 626.201797,533.038954 C623.3745,532.119028 621.529793,531.308462 620.667082,530.607933 C619.804756,529.906899 617.248004,529.256882 612.996344,528.658388 C610.63434,528.707953 608.39872,528.443462 606.290306,527.863747 C604.182322,527.283469 601.576666,527.05601 598.471853,527.183195 C597.730876,527.258424 596.745357,527.662632 595.514691,528.396584 C594.283149,529.13168 593.193509,529.689172 592.24611,530.068589 C589.729027,531.363116 588.502487,531.86763 588.56887,531.57899 C588.635238,531.29037 587.507062,531.268309 585.183529,531.513822 C583.974876,531.642032 582.462069,532.250163 580.643867,533.339798 C578.823782,534.431891 577.156885,535.202787 575.64396,535.651418 C573.460143,537.21467 570.138438,538.482956 565.676998,539.458593 C562.334105,540.692958 558.272396,541.777499 553.490663,542.713667 C548.703191,543.657331 544.239988,544.37763 540.102779,544.872158 C535.6054,545.89474 531.43821,546.907399 527.601956,547.909026 C523.761437,548.916224 519.685997,549.982167 515.374736,551.1079 C511.670533,552.356371 507.967497,553.95053 504.264209,555.892135 C500.554541,557.842073 497.032865,559.041681 493.702315,559.486766 C493.93957,560.530959 494.317949,561.115801 494.837327,561.241485 C496.12299,562.143622 499.776152,563.40916 505.799296,565.035037 C511.826309,566.65586 518.303518,568.187715 525.230486,569.631472 C532.160479,571.071277 538.768417,572.286236 545.053019,573.278316 C551.338676,574.269018 555.241087,574.664756 556.759255,574.466995 L560.17517,575.164418 L582.254051,579.693004 L584.538873,580.528914 C588.558758,581.610852 592.728679,582.694858 597.048798,583.780919 Z M477.232929,445.036007 C477.451038,446.105209 477.524995,447.038563 477.454634,447.836317 C477.384255,448.634096 477.428531,449.421572 477.58756,450.198646 C477.766596,451.072685 478.311943,452.135726 479.224096,453.387173 C480.137025,454.637607 480.623831,455.407821 480.683959,455.698581 C481.303961,456.431428 483.211066,457.045128 486.404965,457.540176 C491.568027,458.93721 495.756844,459.488839 498.968633,459.198881 C504.469758,458.708079 506.872688,456.885591 506.183415,453.723631 C506.07914,453.244337 504.789217,451.376515 502.317662,448.114812 C499.851555,444.845995 498.395154,442.149294 497.944944,440.029166 C496.822981,434.724192 497.240362,430.128628 499.18898,426.25294 C499.690009,425.137036 500.546535,423.529962 501.757405,421.433211 C502.966285,419.339059 504.292196,418.242224 505.736347,418.141146 C507.991969,417.984338 509.99599,418.26088 511.749614,418.969285 C513.503711,419.677071 515.199299,420.217921 516.836112,420.592265 C521.004944,421.668249 523.342785,423.352341 523.849887,425.644356 C524.37915,428.030524 524.004122,429.026109 522.724104,428.632036 C521.540489,427.842803 520.806685,426.802771 520.522516,425.512107 C520.238654,424.221042 518.969276,423.653471 516.713324,423.810708 C512.740294,424.090784 511.374404,427.113132 512.622602,432.868715 C512.97736,434.498024 513.646625,436.297422 514.631115,438.266051 C515.219103,440.944811 516.309908,444.845956 517.907403,449.964587 C518.204437,451.299996 518.522386,452.414773 518.861187,453.309048 C519.200219,454.20302 519.455036,455.030966 519.625555,455.793032 C520.800653,456.470291 522.29432,457.217126 524.106795,458.033309 C525.919942,458.848613 527.465858,459.202176 528.743837,459.094992 C530.477709,458.950218 532.356293,458.528921 534.378877,457.832091 C536.399828,457.137394 537.91046,456.750404 538.911891,456.66971 C540.8672,456.705053 543.98232,456.552825 548.254924,456.216185 C549.526895,456.116848 550.080954,455.236547 549.917553,453.574687 C549.754402,451.9125 549.583892,450.705195 549.405912,449.952875 C548.739448,447.130421 547.741312,444.258408 546.412492,441.335417 C545.086546,438.408673 544.183375,435.905007 543.701408,433.82636 C542.974522,431.475168 542.773428,428.919177 543.096693,426.160173 C543.419394,423.401905 543.308603,420.839538 542.765527,418.471412 C541.769016,414.110471 538.719952,409.86437 533.624825,405.724385 C532.408253,404.732001 529.764899,404.546046 525.69063,405.171809 C521.611663,405.803709 519.341688,405.066687 518.88477,402.955321 C518.656616,401.899239 519.648434,401.038681 521.858659,400.375704 C524.066962,399.715236 525.527505,399.365778 526.241692,399.325544 C530.613732,399.082179 534.044922,399.498098 536.539172,400.568342 C539.034455,401.637236 541.58831,403.158483 544.202233,405.130277 C546.351426,407.028103 548.961012,408.753526 552.030856,410.306874 C555.102879,411.857375 557.004616,414.185987 557.735864,417.293119 C558.268832,419.551347 558.618204,421.795414 558.783531,424.025989 C558.949211,426.2561 559.300274,428.497959 559.83719,430.751031 L561.605748,438.134988 L563.248837,444.94424 L564.150371,448.659842 L565.020396,452.231953 C566.527415,458.388061 567.246015,464.311963 567.170742,470.010991 C567.081772,470.777263 567.022852,472.134162 566.994014,474.081686 C566.965175,476.029211 566.906152,477.386244 566.81691,478.152871 C567.071066,479.174988 567.411328,480.26062 567.837831,481.409637 C568.264702,482.558173 568.605895,483.642588 568.861298,484.663078 C569.233155,486.146951 568.915358,486.933163 567.907419,487.022358 C565.890931,487.201548 564.397536,485.530217 563.42979,482.004922 C562.464695,478.476163 561.103446,476.357229 559.34442,475.650121 C555.050882,474.49083 549.75003,474.181665 543.434696,474.731771 C541.419426,474.909369 539.400384,475.472744 537.376633,476.423058 C534.131602,477.775794 531.726333,478.526205 530.163889,478.67022 C528.692908,478.806343 526.858401,478.590208 524.660874,478.021072 C522.463667,477.451519 520.320717,477.118892 518.231409,477.023898 C516.482217,477.188684 514.367305,477.194486 511.886688,477.041203 C509.405567,476.88858 507.196751,476.905462 505.259996,477.092083 C498.891146,477.712093 494.369142,478.403379 491.698099,479.160411 C488.767523,480.044806 486.210036,480.697819 484.026827,481.11782 C481.769987,481.645517 480.605275,483.541592 480.5339,486.804475 C480.3951,488.397473 480.555754,490.057134 481.016411,491.782797 C481.477717,493.507613 480.932507,494.306166 479.380176,494.179251 C479.100574,494.209728 478.409633,493.421453 477.308259,491.813187 C476.20811,490.203322 475.547216,488.866127 475.324791,487.802562 C474.981445,486.158347 475.014299,484.721037 475.422743,483.491388 C475.830857,482.26217 475.813034,480.583309 475.370134,478.453633 L474.872847,476.056487 L474.376591,473.657995 C473.836395,471.039908 472.914138,468.161103 471.611197,465.019661 C470.311353,461.874172 469.057179,459.167252 467.847802,456.899913 C466.491933,452.954387 465.419963,450.171079 464.629412,448.553105 C463.709142,446.746792 462.623301,443.858504 461.373937,439.88544 C460.854959,437.239638 460.004196,434.197259 458.823108,430.75627 C457.64523,427.31109 456.194851,424.959442 454.470426,423.703219 C453.04238,423.021623 450.950308,421.768588 448.195831,419.941877 C445.444032,418.111668 443.866523,416.105869 443.46186,413.926247 C443.223124,412.637789 443.468047,411.964045 444.196342,411.905382 C444.469425,411.883419 445.666972,412.113974 447.789098,412.596949 C449.911314,413.079806 451.063406,413.313945 451.245336,413.299467 C455.147956,414.892358 457.492181,415.806486 458.276341,416.04415 C459.390125,416.555298 460.667031,416.953403 462.106914,417.238718 C463.546795,417.524036 464.658969,417.785301 465.443506,418.022474 C468.36188,418.788874 470.456138,419.817874 471.726807,421.108895 C473.523954,425.035922 474.703308,429.081095 475.262673,433.24745 C475.82432,437.410824 476.481028,441.340352 477.232929,445.036007 Z" id="Click-Me-Copy" fill="#155AAA" transform="translate(633.753976, 807.191683) rotate(3.000000) translate(-633.753976, -807.191683) "></path>
        </g>
    </g>
</svg>