<?xml version="1.0" encoding="UTF-8" standalone="no"?>
<svg width="2077px" height="1732px" viewBox="0 0 2077 1732" version="1.1" xmlns="http://www.w3.org/2000/svg" xmlns:xlink="http://www.w3.org/1999/xlink">
    <!-- Generator: Sketch 3.7.2 (28276) - http://www.bohemiancoding.com/sketch -->
    <title>Group 14</title>
    <desc>Created with Sketch.</desc>
    <defs></defs>
    <g id="Page-1" stroke="none" stroke-width="1" fill="none" fill-rule="evenodd">
        <g id="Group-14">
            <g id="Mountains-Copy" transform="translate(0.000000, 79.000000)">
                <g id="mountain1-copy-2" transform="translate(464.000000, 71.000000)">
                    <polygon id="Path-37" fill="#B6CEF9" points="319.5 210.800725 403.5 269.998188 360.5 312.591486"></polygon>
                    <path d="M0,741.412138 L116,492.349638 L215,431.708333 L319.5,210.800725 L361,312.591486 L491.5,0 C491.5,0 592.5,301.040761 630,325.586051 L878.5,741.412138 L0,741.412138 Z" id="Path-34" fill="#155AAA"></path>
                    <path d="M517.5,741.412138 L549.5,697.375 L415,634.567935 L329,316.923007 L467.5,180.480072 L491.5,0 C491.5,0 592.5,301.040761 630,325.586051 L878.5,741.412138 L517.5,741.412138 Z" id="Path-34" fill="#B6CEF9"></path>
                    <path d="M37,740.690217 L126,641.787138 L216.5,586.199275 L266.5,474.30163 L328.5,316.201087 C328.5,316.201087 410,585.477355 447.5,610.022645 L706,740.690217 L37,740.690217 Z" id="Path-34" fill="#4990E2"></path>
                </g>
                <g id="Group-11" transform="translate(969.000000, 197.000000)" fill="#FFFFFF">
                    <g id="Group-6-Copy-5" transform="translate(575.000000, 98.000000) scale(-1, 1) rotate(90.000000) translate(-575.000000, -98.000000) translate(555.000000, -50.000000)">
                        <g id="Group-10-Copy-2">
                            <rect id="Rectangle-54-Copy-4" x="-9.09494702e-13" y="18.9699864" width="40" height="180.12056" rx="0.8"></rect>
                            <path d="M20,218 C31.045695,218 40,209.510034 40,199.03713 C40,188.564226 31.045695,180.074259 20,180.074259 C8.954305,180.074259 -9.09494702e-13,188.564226 -9.09494702e-13,199.03713 C-9.09494702e-13,209.510034 8.954305,218 20,218 Z" id="Oval-10-Copy-3"></path>
                            <path d="M20,295.925741 C31.045695,295.925741 40,287.435774 40,276.96287 C40,266.489966 31.045695,258 20,258 C8.954305,258 0,266.489966 0,276.96287 C0,287.435774 8.954305,295.925741 20,295.925741 Z" id="Oval-10-Copy-12"></path>
                            <path d="M20,37.9862732 C31.045695,37.9862732 40,29.496307 40,19.0234029 C40,8.55049882 31.045695,0.0605325835 20,0.0605325835 C8.954305,0.0605325835 -9.09494702e-13,8.55049882 -9.09494702e-13,19.0234029 C-9.09494702e-13,29.496307 8.954305,37.9862732 20,37.9862732 Z" id="Oval-10-Copy-3"></path>
                        </g>
                    </g>
                    <g id="Group-6-Copy-9" transform="translate(237.000000, 98.000000) scale(-1, 1) rotate(90.000000) translate(-237.000000, -98.000000) translate(217.000000, -11.000000)">
                        <g id="Group-10-Copy-2">
                            <rect id="Rectangle-54-Copy-4" x="-9.09494702e-13" y="18.9699864" width="40" height="180.12056" rx="0.8"></rect>
                            <path d="M20,218 C31.045695,218 40,209.510034 40,199.03713 C40,188.564226 31.045695,180.074259 20,180.074259 C8.954305,180.074259 -9.09494702e-13,188.564226 -9.09494702e-13,199.03713 C-9.09494702e-13,209.510034 8.954305,218 20,218 Z" id="Oval-10-Copy-3"></path>
                            <path d="M20,37.9862732 C31.045695,37.9862732 40,29.496307 40,19.0234029 C40,8.55049882 31.045695,0.0605325835 20,0.0605325835 C8.954305,0.0605325835 -9.09494702e-13,8.55049882 -9.09494702e-13,19.0234029 C-9.09494702e-13,29.496307 8.954305,37.9862732 20,37.9862732 Z" id="Oval-10-Copy-3"></path>
                        </g>
                    </g>
                    <g id="Group-6-Copy-6" transform="translate(402.000000, 136.000000) scale(-1, 1) rotate(90.000000) translate(-402.000000, -136.000000) translate(382.000000, 27.000000)">
                        <g id="Group-10-Copy-2" transform="translate(-0.000000, 0.000000)">
                            <rect id="Rectangle-54-Copy-4" x="-9.09494702e-13" y="18.9699864" width="40" height="180.12056" rx="0.8"></rect>
                            <path d="M20,218 C31.045695,218 40,209.510034 40,199.03713 C40,188.564226 31.045695,180.074259 20,180.074259 C8.954305,180.074259 -9.09494702e-13,188.564226 -9.09494702e-13,199.03713 C-9.09494702e-13,209.510034 8.954305,218 20,218 Z" id="Oval-10-Copy-3"></path>
                            <path d="M20,37.9862732 C31.045695,37.9862732 40,29.496307 40,19.0234029 C40,8.55049882 31.045695,0.0605325835 20,0.0605325835 C8.954305,0.0605325835 -9.09494702e-13,8.55049882 -9.09494702e-13,19.0234029 C-9.09494702e-13,29.496307 8.954305,37.9862732 20,37.9862732 Z" id="Oval-10-Copy-3"></path>
                        </g>
                    </g>
                    <g id="Group-6-Copy-7" transform="translate(138.000000, 20.000000) scale(-1, 1) rotate(90.000000) translate(-138.000000, -20.000000) translate(118.000000, -118.000000)">
                        <g id="Group-10-Copy-2" transform="translate(-0.000000, 0.000000)">
                            <rect id="Rectangle-54-Copy-4" x="-9.09494702e-13" y="76.9699864" width="40" height="180.12056" rx="0.8"></rect>
                            <path d="M20,276 C31.045695,276 40,267.510034 40,257.03713 C40,246.564226 31.045695,238.074259 20,238.074259 C8.954305,238.074259 -9.09494702e-13,246.564226 -9.09494702e-13,257.03713 C-9.09494702e-13,267.510034 8.954305,276 20,276 Z" id="Oval-10-Copy-3"></path>
                            <path d="M20,95.9862732 C31.045695,95.9862732 40,87.496307 40,77.0234029 C40,66.5504988 31.045695,58.0605326 20,58.0605326 C8.954305,58.0605326 -9.09494702e-13,66.5504988 -9.09494702e-13,77.0234029 C-9.09494702e-13,87.496307 8.954305,95.9862732 20,95.9862732 Z" id="Oval-10-Copy-3"></path>
                            <path d="M20,37.9257407 C31.045695,37.9257407 40,29.4357744 40,18.9628703 C40,8.48996623 31.045695,0 20,0 C8.954305,0 0,8.48996623 0,18.9628703 C0,29.4357744 8.954305,37.9257407 20,37.9257407 Z" id="Oval-10-Copy-10"></path>
                        </g>
                    </g>
                    <g id="Group-6-Copy-8" transform="translate(346.000000, 59.500000) scale(-1, 1) rotate(90.000000) translate(-346.000000, -59.500000) translate(326.000000, -80.000000)">
                        <g id="Group-10-Copy-2" transform="translate(-0.000000, 0.000000)">
                            <rect id="Rectangle-54-Copy-4" x="-9.09494702e-13" y="24.2781018" width="40" height="230.521267" rx="0.8"></rect>
                            <path d="M20,279 C31.045695,279 40,268.134401 40,254.731005 C40,241.32761 31.045695,230.462011 20,230.462011 C8.954305,230.462011 -9.09494702e-13,241.32761 -9.09494702e-13,254.731005 C-9.09494702e-13,268.134401 8.954305,279 20,279 Z" id="Oval-10-Copy-3"></path>
                            <path d="M20,48.6154598 C31.045695,48.6154598 40,37.7498608 40,24.3464652 C40,10.9430696 31.045695,0.0774706 20,0.0774706 C8.954305,0.0774706 -9.09494702e-13,10.9430696 -9.09494702e-13,24.3464652 C-9.09494702e-13,37.7498608 8.954305,48.6154598 20,48.6154598 Z" id="Oval-10-Copy-3"></path>
                        </g>
                    </g>
                </g>
                <g id="Group-11-Copy" fill="#FFFFFF">
                    <g id="Group-6-Copy-5" transform="translate(620.266700, 68.958446) scale(-1, 1) rotate(90.000000) translate(-620.266700, -68.958446) translate(595.266700, -114.041554)">
                        <g id="Group-10-Copy-2" transform="translate(0.000000, 0.000000)">
                            <rect id="Rectangle-54-Copy-4" x="-7.95807864e-13" y="23.4613474" width="49.1920107" height="222.766161" rx="0.64"></rect>
                            <path d="M24.5960054,269.613991 C38.180004,269.613991 49.1920107,259.113928 49.1920107,246.161445 C49.1920107,233.208961 38.180004,222.708898 24.5960054,222.708898 C11.0120067,222.708898 -8.10018719e-13,233.208961 -8.10018719e-13,246.161445 C-8.10018719e-13,259.113928 11.0120067,269.613991 24.5960054,269.613991 Z" id="Oval-10-Copy-3"></path>
                            <path d="M24.5960054,365.989541 C38.180004,365.989541 49.1920107,355.489479 49.1920107,342.536995 C49.1920107,329.584511 38.180004,319.084448 24.5960054,319.084448 C11.0120067,319.084448 -2.13162821e-14,329.584511 -2.13162821e-14,342.536995 C-2.13162821e-14,355.489479 11.0120067,365.989541 24.5960054,365.989541 Z" id="Oval-10-Copy-12"></path>
                            <path d="M24.5960054,46.9799575 C38.180004,46.9799575 49.1920107,36.4798947 49.1920107,23.5274109 C49.1920107,10.5749271 38.180004,0.0748643643 24.5960054,0.0748643643 C11.0120067,0.0748643643 -9.09494702e-13,10.5749271 -9.09494702e-13,23.5274109 C-9.09494702e-13,36.4798947 11.0120067,46.9799575 24.5960054,46.9799575 Z" id="Oval-10-Copy-3"></path>
                        </g>
                    </g>
                    <g id="Group-6-Copy-9" transform="translate(441.871316, 116.976237) scale(-1, 1) rotate(90.000000) translate(-441.871316, -116.976237) translate(416.871316, -18.023763)">
                        <g id="Group-10-Copy-2" transform="translate(0.000000, 0.000000)">
                            <rect id="Rectangle-54-Copy-4" x="-6.82121026e-13" y="23.4613474" width="49.1920107" height="222.766161" rx="0.64"></rect>
                            <path d="M24.5960054,269.613991 C38.180004,269.613991 49.1920107,259.113928 49.1920107,246.161445 C49.1920107,233.208961 38.180004,222.708898 24.5960054,222.708898 C11.0120067,222.708898 -9.23705556e-13,233.208961 -9.23705556e-13,246.161445 C-9.23705556e-13,259.113928 11.0120067,269.613991 24.5960054,269.613991 Z" id="Oval-10-Copy-3"></path>
                            <path d="M24.5960054,46.9799575 C38.180004,46.9799575 49.1920107,36.4798947 49.1920107,23.5274109 C49.1920107,10.5749271 38.180004,0.0748643643 24.5960054,0.0748643643 C11.0120067,0.0748643643 -9.09494702e-13,10.5749271 -9.09494702e-13,23.5274109 C-9.09494702e-13,36.4798947 11.0120067,46.9799575 24.5960054,46.9799575 Z" id="Oval-10-Copy-3"></path>
                        </g>
                    </g>
                    <g id="Group-6-Copy-7" transform="translate(171.428971, 72.930394) scale(-1, 1) rotate(90.000000) translate(-171.428971, -72.930394) translate(146.428971, -98.069606)">
                        <g id="Group-10-Copy-2" transform="translate(-0.000000, 0.000000)">
                            <rect id="Rectangle-54-Copy-4" x="-9.16600129e-13" y="95.1935102" width="49.1920107" height="222.766161" rx="0.64"></rect>
                            <path d="M24.5960054,341.346154 C38.180004,341.346154 49.1920107,330.846091 49.1920107,317.893607 C49.1920107,304.941123 38.180004,294.441061 24.5960054,294.441061 C11.0120067,294.441061 -9.30810984e-13,304.941123 -9.30810984e-13,317.893607 C-9.30810984e-13,330.846091 11.0120067,341.346154 24.5960054,341.346154 Z" id="Oval-10-Copy-3"></path>
                            <path d="M24.5960054,118.71212 C38.180004,118.71212 49.1920107,108.212058 49.1920107,95.2595737 C49.1920107,82.3070899 38.180004,71.8070271 24.5960054,71.8070271 C11.0120067,71.8070271 -9.16600129e-13,82.3070899 -9.16600129e-13,95.2595737 C-9.16600129e-13,108.212058 11.0120067,118.71212 24.5960054,118.71212 Z" id="Oval-10-Copy-3"></path>
                            <path d="M24.5960054,46.9050931 C38.180004,46.9050931 49.1920107,36.4050304 49.1920107,23.4525466 C49.1920107,10.5000628 38.180004,0 24.5960054,0 C11.0120067,0 0,10.5000628 0,23.4525466 C0,36.4050304 11.0120067,46.9050931 24.5960054,46.9050931 Z" id="Oval-10-Copy-10"></path>
                        </g>
                    </g>
                    <g id="Group-6-Copy-8" transform="translate(336.484067, 25.082568) scale(-1, 1) rotate(90.000000) translate(-336.484067, -25.082568) translate(311.484067, -147.917432)">
                        <g id="Group-10-Copy-2" transform="translate(-0.000000, 0.000000)">
                            <rect id="Rectangle-54-Copy-4" x="-8.54497029e-13" y="30.0262199" width="49.1920107" height="285.099811" rx="0.64"></rect>
                            <path d="M24.5960054,345.056438 C38.180004,345.056438 49.1920107,331.618284 49.1920107,315.041482 C49.1920107,298.464679 38.180004,285.026525 24.5960054,285.026525 C11.0120067,285.026525 -8.7010954e-13,298.464679 -8.7010954e-13,315.041482 C-8.7010954e-13,331.618284 11.0120067,345.056438 24.5960054,345.056438 Z" id="Oval-10-Copy-3"></path>
                            <path d="M24.5960054,60.1257254 C38.180004,60.1257254 49.1920107,46.6875717 49.1920107,30.110769 C49.1920107,13.5339664 38.180004,0.0958126498 24.5960054,0.0958126498 C11.0120067,0.0958126498 -9.0950858e-13,13.5339664 -9.0950858e-13,30.110769 C-9.0950858e-13,46.6875717 11.0120067,60.1257254 24.5960054,60.1257254 Z" id="Oval-10-Copy-3"></path>
                        </g>
                    </g>
                </g>
                <g id="mountain2-copy-2" transform="translate(727.000000, 163.405797)">
                    <polygon id="Path-41" fill="#155AAA" points="646.5 1.44384058 492.5 246.896739 404 519.060688 353 646.118659 620.511682 646.118659"></polygon>
                    <polyline id="Path-42" fill="#155AAA" transform="translate(247.250005, 421.372440) rotate(5.000000) translate(-247.250005, -421.372440) " points="472.945913 166.03842 367.676777 286.993061 276.676777 344.94558 197.676777 395.654034 131.176777 521.206934 21.5540975 676.70646 260.697776 648.264905 415.676777 326.111012"></polyline>
                    <polyline id="Path-42" fill="#4A90E2" points="511 167.485507 408.5 287.012577 317.5 344.965096 238.5 395.67355 172 521.226449 60 648.28442 301.520999 648.28442 456.5 326.130527"></polyline>
                    <polygon id="Path-44" fill="#B6CEF9" points="241 585.477355 304 453.365942 456.5 311.869565 290.5 429.542572 229.5 548.65942 227 636.733696"></polygon>
                    <path d="M228.797271,648.28442 L358.297271,648.28442 L735.797271,648.28442 L627.797271,395.612319 L511.797257,167.485507 L457.297271,311.869565 L292.297271,439.649457 C292.297271,439.649457 214.297271,648.28442 228.797271,648.28442 Z" id="Path-38-Copy" fill="#155AAA"></path>
                    <path d="M887.382392,648.28442 C866.290764,624.32754 786.216403,531.812814 765,484.408514 C729.834963,405.838459 697,215.132246 697,215.132246 L647,0 L580.5,305.372283 L367,358.794384 L425,579.701993 L471.62844,648.28442 L887.382392,648.28442 Z" id="Combined-Shape" fill="#B6CEF9"></path>
                    <polygon id="Path-38" fill="#4990E2" points="207 648.28442 546 648.28442 458.5 572.48279 367.5 359.516304 350.5 503.900362 307.5 544.327899"></polygon>
                </g>
            </g>
            <rect id="Rectangle-6-Copy-5" fill="#BE75FF" x="432" y="883" width="1216" height="35" rx="8"></rect>
            <g id="Group-4-Copy-2" transform="translate(647.500000, 441.500000) scale(-1, 1) translate(-647.500000, -441.500000) translate(532.000000, 0.000000)">
                <g id="Group-Copy">
                    <polygon id="Triangle-1" fill="#155AAA" points="115.233256 0 231 265.647506 115.233256 265.647506"></polygon>
                    <polygon id="Triangle-1-Copy" fill="#B6CEF9" transform="translate(57.883372, 132.823753) scale(-1, 1) translate(-57.883372, -132.823753) " points="-2.7000624e-13 0 115.766744 265.647506 -2.7000624e-13 265.647506"></polygon>
                </g>
                <g id="Group-3-Copy-3" transform="translate(23.477314, 279.893587)">
                    <rect id="Rectangle-11" fill="#B6CEF9" x="0" y="0" width="91.7598152" height="179.333017"></rect>
                    <rect id="Rectangle-11-Copy-3" fill="#155AAA" x="91.7598152" y="0" width="91.7598152" height="179.333017"></rect>
                </g>
                <g id="Group-3-Copy-4" transform="translate(22.961887, 702.666983)">
                    <rect id="Rectangle-11" fill="#B6CEF9" x="0" y="0" width="91.7598152" height="179.333017"></rect>
                    <rect id="Rectangle-11-Copy-3" fill="#155AAA" x="91.7598152" y="0" width="91.7598152" height="179.333017"></rect>
                </g>
                <g id="Group-3-Copy-5" transform="translate(43.923775, 473.891686)">
                    <rect id="Rectangle-11" fill="#B6CEF9" x="0" y="0" width="70.8100857" height="215.367221"></rect>
                    <rect id="Rectangle-11-Copy-3" fill="#155AAA" x="70.8100857" y="0" width="70.8100857" height="215.367221"></rect>
                </g>
                <g id="Group-2-Copy-2" opacity="0.700909515" style="mix-blend-mode: darken;" transform="translate(23.477314, 267.742518)" fill="#9012FE">
                    <path d="M58.2861835,0 L7.99471011,0 C3.57911108,0 0,3.57984147 0,7.9957997 L0,20.9153642 C0,25.3370908 3.57935364,28.9111639 7.99471011,28.9111639 L58.2861835,28.9111639 L91.9717317,28.9111639 L91.9717317,0 L58.2861835,0 Z" id="Combined-Shape"></path>
                    <path d="M149.834082,0 L99.5426089,0 C95.1270099,0 91.5478988,3.57984147 91.5478988,7.9957997 L91.5478988,20.9153642 C91.5478988,25.3370908 95.1272524,28.9111639 99.5426089,28.9111639 L149.834082,28.9111639 L183.51963,28.9111639 L183.51963,0 L149.834082,0 Z" id="Combined-Shape-Copy-3" transform="translate(137.533765, 14.455582) scale(-1, 1) translate(-137.533765, -14.455582) "></path>
                </g>
                <g id="Group-2-Copy-3" transform="translate(0.000000, 251.401425)">
                    <path d="M74.3968493,0 L8.00148859,0 C3.58049524,0 0,3.57984147 0,7.9957997 L0,20.9153642 C0,25.3370908 3.58238847,28.9111639 8.00148859,28.9111639 L74.3968493,28.9111639 L115.766744,28.9111639 L115.766744,0 L74.3968493,0 Z" id="Combined-Shape" fill="#BE75FF"></path>
                    <path d="M189.630106,0 L123.234745,0 C118.813752,0 115.233256,3.57984147 115.233256,7.9957997 L115.233256,20.9153642 C115.233256,25.3370908 118.815645,28.9111639 123.234745,28.9111639 L189.630106,28.9111639 L231,28.9111639 L231,0 L189.630106,0 Z" id="Combined-Shape-Copy-3" fill="#9012FE" transform="translate(173.116628, 14.455582) scale(-1, 1) translate(-173.116628, -14.455582) "></path>
                </g>
                <polyline id="Path-70-Copy-4" fill="#BE75FF" points="23.477314 459.436112 38.0913731 474.041966 115.305474 474.041966 115.305474 459.226603 23.477314 459.226603"></polyline>
                <polyline id="Path-70-Copy-5" fill="#BE75FF" transform="translate(68.875967, 695.828584) scale(1, -1) translate(-68.875967, -695.828584) " points="22.9618875 688.630411 37.5759466 703.236266 114.790047 703.236266 114.790047 688.420903 22.9618875 688.420903"></polyline>
                <polyline id="Path-70-Copy-6" fill="#9013FE" transform="translate(161.204461, 466.634285) scale(-1, 1) translate(-161.204461, -466.634285) " points="115.290381 459.436112 129.90444 474.041966 207.118541 474.041966 207.118541 459.226603 115.290381 459.226603"></polyline>
                <polyline id="Path-70-Copy-7" fill="#9013FE" transform="translate(160.689034, 695.828584) scale(-1, -1) translate(-160.689034, -695.828584) " points="114.774955 688.630411 129.389014 703.236266 206.603114 703.236266 206.603114 688.420903 114.774955 688.420903"></polyline>
            </g>
            <g id="rock-bottom-copy" transform="translate(447.000000, 946.000000)">
                <path d="M2.53977882,7.77156117e-16 L203.941164,390.082414 L344.758163,273.541776 L608.114744,783.62154 L768.125352,287.031702 L916.876818,575.139607 L1018.86221,387.242587 L1109.90356,305.33946 L1176.07023,1.81610784 L929.56852,-1.05471187e-15 L2.53977882,0 Z" id="Combined-Shape" fill="#BE75FF"></path>
                <path d="M153.036881,-6.66133815e-16 L204.817132,390.31077 L0.598892849,-1.13242749e-14 L153.036881,0 Z" id="Combined-Shape" fill="#9013FE"></path>
                <path d="M263.773319,-1.11022302e-15 L344.963211,274.631132 L609.406355,785.549534 L475.687992,4.46309656e-14 L263.773319,0 Z" id="Combined-Shape" fill="#9013FE"></path>
                <path d="M836.442785,6.99440506e-15 L768.4699,288.12709 L917.591973,575.398191 L1018.00084,388.382776 L1111.45067,305.479035 L1185.36952,-8.32667268e-15 L836.442785,7.10542736e-15 Z" id="Combined-Shape" fill="#9013FE"></path>
                <path d="M797.046552,-8.43769499e-15 C722.447176,12.9660381 640.400773,48.1376408 604.440175,136.058878 C592.977367,164.084669 683.97195,458.033886 683.97195,458.033886 L917.596524,577.569479 L945.300416,6.63913369e-14 L797.046552,1.42108547e-14 Z" id="Combined-Shape" fill="#BE75FF"></path>
                <path d="M598.190063,8.77076189e-15 L709.815217,469.358523 L784.890542,1.96509475e-14 L598.190063,2.13162821e-14 Z" id="Combined-Shape" fill="#9013FE"></path>
                <path d="M1048.98635,6.66133815e-16 L1018.99498,388.382776 L1135.11235,1.78745907e-14 L1048.98635,0 Z" id="Combined-Shape" fill="#BE75FF"></path>
            </g>
            <g id="Waterfall-Copy" transform="translate(893.000000, 873.000000)">
                <path d="M35.9540055,392.233249 C35.9838078,392.148821 36,392.057894 36,391.963142 L36,0.804790639 C36,0.359818037 35.6407596,0 35.1976142,0 L0.802385844,0 C0.356304646,0 0,0.360317043 0,0.804790639 L0,391.963142 C0,392.057693 0.0162202102,392.1484 0.0460190196,392.232627 C0.0155135677,393.00447 0,393.783781 0,394.56962 C0,412.480424 8.0588745,427 18,427 C27.9411255,427 36,412.480424 36,394.56962 C36,393.783992 35.9844948,393.004888 35.9540055,392.233249 Z" id="Combined-Shape" fill="#4990E2"></path>
                <path d="M61.9928086,300.757595 C61.9975522,300.722436 62,300.686552 62,300.650098 L62,0.799177496 C62,0.357608665 61.63873,0 61.1930809,0 L28.8069191,0 C28.358831,0 28,0.357803953 28,0.799177496 L28,300.650098 C28,300.686465 28.0024505,300.722263 28.0071968,300.757338 C28.0024099,300.987174 28,301.217835 28,301.449275 C28,314.455981 35.6111593,325 45,325 C54.3888407,325 62,314.455981 62,301.449275 C62,301.217921 61.9975919,300.987346 61.9928086,300.757595 Z" id="Combined-Shape" fill="#4990E2"></path>
                <g id="Group-6" transform="translate(45.000000, 149.500000) scale(-1, 1) translate(-45.000000, -149.500000) translate(39.000000, 48.000000)" fill="#FFFFFF">
                    <rect id="Rectangle-54-Copy-4" x="0" y="17.6132353" width="12" height="167.773529" rx="0.8"></rect>
                    <path d="M6,203 C9.3137085,203 12,195.09201 12,185.33701 C12,175.58201 9.3137085,167.67402 6,167.67402 C2.6862915,167.67402 0,175.58201 0,185.33701 C0,195.09201 2.6862915,203 6,203 Z" id="Oval-10-Copy-3"></path>
                    <path d="M6,35.3259804 C9.3137085,35.3259804 12,27.4179903 12,17.6629902 C12,7.90799007 9.3137085,0 6,0 C2.6862915,0 0,7.90799007 0,17.6629902 C0,27.4179903 2.6862915,35.3259804 6,35.3259804 Z" id="Oval-10-Copy-3"></path>
                </g>
                <g id="Group-6-Copy" transform="translate(18.000000, 308.000000) scale(-1, 1) translate(-18.000000, -308.000000) translate(12.000000, 232.000000)" fill="#FFFFFF">
                    <rect id="Rectangle-54-Copy-4" x="0" y="43.9231601" width="12" height="97.80867" rx="0.8"></rect>
                    <path d="M6,152 C9.3137085,152 12,147.389797 12,141.702824 C12,136.015851 9.3137085,131.405648 6,131.405648 C2.6862915,131.405648 0,136.015851 0,141.702824 C0,147.389797 2.6862915,152 6,152 Z" id="Oval-10-Copy-3"></path>
                    <path d="M6,54.2493423 C9.3137085,54.2493423 12,49.6391395 12,43.9521662 C12,38.2651929 9.3137085,33.6549901 6,33.6549901 C2.6862915,33.6549901 0,38.2651929 0,43.9521662 C0,49.6391395 2.6862915,54.2493423 6,54.2493423 Z" id="Oval-10-Copy-3"></path>
                    <path d="M6,20.5943522 C9.3137085,20.5943522 12,15.9841494 12,10.2971761 C12,4.61020278 9.3137085,0 6,0 C2.6862915,0 0,4.61020278 0,10.2971761 C0,15.9841494 2.6862915,20.5943522 6,20.5943522 Z" id="Oval-10-Copy-6"></path>
                </g>
            </g>
            <g id="Group-6-Copy-10" transform="translate(1665.500000, 632.500000) scale(-1, 1) rotate(90.000000) translate(-1665.500000, -632.500000) translate(1574.000000, 221.000000)" fill="#FFFFFF">
                <g id="Group-10" transform="translate(59.000000, 96.000000)">
                    <rect id="Rectangle-54-Copy-4" x="-9.09494702e-13" y="29.4121807" width="62" height="279.269492" rx="0.8"></rect>
                    <path d="M31,338 C48.1208272,338 62,324.836658 62,308.598852 C62,292.361047 48.1208272,279.197705 31,279.197705 C13.8791728,279.197705 -9.09494702e-13,292.361047 -9.09494702e-13,308.598852 C-9.09494702e-13,324.836658 13.8791728,338 31,338 Z" id="Oval-10-Copy-3"></path>
                    <path d="M31,58.8961484 C48.1208272,58.8961484 62,45.7328063 62,29.4950008 C62,13.2571954 48.1208272,0.0938532716 31,0.0938532716 C13.8791728,0.0938532716 -9.09494702e-13,13.2571954 -9.09494702e-13,29.4950008 C-9.09494702e-13,45.7328063 13.8791728,58.8961484 31,58.8961484 Z" id="Oval-10-Copy-3"></path>
                </g>
                <g id="Group-10-Copy" transform="translate(119.000000, 222.000000)">
                    <rect id="Rectangle-54-Copy-4" x="-9.09494702e-13" y="29.4121807" width="62" height="279.269492" rx="0.8"></rect>
                    <path d="M31,338 C48.1208272,338 62,324.836658 62,308.598852 C62,292.361047 48.1208272,279.197705 31,279.197705 C13.8791728,279.197705 -9.09494702e-13,292.361047 -9.09494702e-13,308.598852 C-9.09494702e-13,324.836658 13.8791728,338 31,338 Z" id="Oval-10-Copy-3"></path>
                    <path d="M31,58.8961484 C48.1208272,58.8961484 62,45.7328063 62,29.4950008 C62,13.2571954 48.1208272,0.0938532716 31,0.0938532716 C13.8791728,0.0938532716 -9.09494702e-13,13.2571954 -9.09494702e-13,29.4950008 C-9.09494702e-13,45.7328063 13.8791728,58.8961484 31,58.8961484 Z" id="Oval-10-Copy-3"></path>
                </g>
                <g id="Group-10-Copy-2" transform="translate(0.000000, 345.000000)">
                    <rect id="Rectangle-54-Copy-4" x="-9.09494702e-13" y="29.4121807" width="62" height="279.269492" rx="0.8"></rect>
                    <path d="M31,338 C48.1208272,338 62,324.836658 62,308.598852 C62,292.361047 48.1208272,279.197705 31,279.197705 C13.8791728,279.197705 -9.09494702e-13,292.361047 -9.09494702e-13,308.598852 C-9.09494702e-13,324.836658 13.8791728,338 31,338 Z" id="Oval-10-Copy-3"></path>
                    <path d="M31,58.8961484 C48.1208272,58.8961484 62,45.7328063 62,29.4950008 C62,13.2571954 48.1208272,0.0938532716 31,0.0938532716 C13.8791728,0.0938532716 -9.09494702e-13,13.2571954 -9.09494702e-13,29.4950008 C-9.09494702e-13,45.7328063 13.8791728,58.8961484 31,58.8961484 Z" id="Oval-10-Copy-3"></path>
                </g>
                <path d="M90,58.8022951 C107.120827,58.8022951 121,45.638953 121,29.4011476 C121,13.1633421 107.120827,0 90,0 C72.8791728,0 59,13.1633421 59,29.4011476 C59,45.638953 72.8791728,58.8022951 90,58.8022951 Z" id="Oval-10-Copy-6"></path>
                <path d="M152,682.802295 C169.120827,682.802295 183,669.638953 183,653.401148 C183,637.163342 169.120827,624 152,624 C134.879173,624 121,637.163342 121,653.401148 C121,669.638953 134.879173,682.802295 152,682.802295 Z" id="Oval-10-Copy-7"></path>
                <path d="M31,822.802295 C48.1208272,822.802295 62,809.638953 62,793.401148 C62,777.163342 48.1208272,764 31,764 C13.8791728,764 0,777.163342 0,793.401148 C0,809.638953 13.8791728,822.802295 31,822.802295 Z" id="Oval-10-Copy-9"></path>
            </g>
            <g id="Group-6-Copy-11" transform="translate(647.500000, 440.500000) scale(-1, 1) rotate(90.000000) translate(-647.500000, -440.500000) translate(607.000000, 215.000000)" fill="#FFFFFF">
                <g id="Group-10-Copy-2" transform="translate(40.000000, 113.000000)">
                    <rect id="Rectangle-54-Copy-4" x="0" y="23.6689738" width="41" height="224.737579" rx="0.8"></rect>
                    <path d="M20.5,272 C31.8218374,272 41,261.407015 41,248.339905 C41,235.272795 31.8218374,224.67981 20.5,224.67981 C9.17816263,224.67981 0,235.272795 0,248.339905 C0,261.407015 9.17816263,272 20.5,272 Z" id="Oval-10-Copy-3"></path>
                    <path d="M20.5,337.32019 C31.8218374,337.32019 41,326.727205 41,313.660095 C41,300.592985 31.8218374,290 20.5,290 C9.17816263,290 0,300.592985 0,313.660095 C0,326.727205 9.17816263,337.32019 20.5,337.32019 Z" id="Oval-10-Copy-8"></path>
                    <path d="M20.5,47.3957171 C31.8218374,47.3957171 41,36.8027317 41,23.735622 C41,10.6685123 31.8218374,0.0755268932 20.5,0.0755268932 C9.17816263,0.0755268932 0,10.6685123 0,23.735622 C0,36.8027317 9.17816263,47.3957171 20.5,47.3957171 Z" id="Oval-10-Copy-3"></path>
                </g>
                <g id="Group-10-Copy-3">
                    <rect id="Rectangle-54-Copy-4" x="0" y="23.6689738" width="41" height="224.737579" rx="0.8"></rect>
                    <path d="M20.5,272 C31.8218374,272 41,261.407015 41,248.339905 C41,235.272795 31.8218374,224.67981 20.5,224.67981 C9.17816263,224.67981 0,235.272795 0,248.339905 C0,261.407015 9.17816263,272 20.5,272 Z" id="Oval-10-Copy-3"></path>
                    <path d="M20.5,47.3957171 C31.8218374,47.3957171 41,36.8027317 41,23.735622 C41,10.6685123 31.8218374,0.0755268932 20.5,0.0755268932 C9.17816263,0.0755268932 0,10.6685123 0,23.735622 C0,36.8027317 9.17816263,47.3957171 20.5,47.3957171 Z" id="Oval-10-Copy-3"></path>
                </g>
            </g>
        </g>
    </g>
</svg>
